<?xml version="1.0" encoding="utf-8"?>
<!-- Generator: Adobe Illustrator 23.0.2, SVG Export Plug-In . SVG Version: 6.00 Build 0)  -->
<svg version="1.1" id="Layer_1" xmlns="http://www.w3.org/2000/svg" xmlns:xlink="http://www.w3.org/1999/xlink" x="0px" y="0px"
	 viewBox="0 0 250 141" style="enable-background:new 0 0 250 141;" xml:space="preserve">
<style type="text/css">
	.st0{fill-rule:evenodd;clip-rule:evenodd;fill:#4D4E4B;}
	.st1{fill-rule:evenodd;clip-rule:evenodd;fill:#E35C21;}
	.st2{fill-rule:evenodd;clip-rule:evenodd;fill:#0E933C;}
	.st3{fill-rule:evenodd;clip-rule:evenodd;fill:#04589D;}
</style>
<g id="_2842743435104">
	<path class="st0" d="M216.3,84.9v1.4l0.1-0.1c0.6-1,1.2-1.5,1.8-1.5c0.4,0,0.9,0.3,1.4,0.8l-0.6,1.1c-0.4-0.4-0.8-0.6-1.2-0.6
		s-0.8,0.2-1,0.6c-0.3,0.4-0.4,0.9-0.4,1.4v3.3H215v-6.4L216.3,84.9L216.3,84.9L216.3,84.9z M209.1,87.4h3.2
		c-0.1-0.5-0.2-0.9-0.4-1.2c-0.3-0.3-0.6-0.4-1.1-0.4s-0.8,0.1-1.1,0.4C209.3,86.4,209.1,86.9,209.1,87.4z M213.4,88.1h-4.3
		c0.1,0.6,0.3,1.1,0.6,1.5c0.4,0.4,0.9,0.6,1.4,0.6c0.8,0,1.6-0.3,2.3-0.8v1.3c-0.3,0.3-0.7,0.4-1.1,0.6c-0.4,0.1-0.8,0.2-1.3,0.2
		c-0.7,0-1.3-0.1-1.7-0.4s-0.8-0.7-1.1-1.2c-0.3-0.5-0.4-1.1-0.4-1.7c0-1,0.3-1.8,0.8-2.4c0.6-0.6,1.3-0.9,2.1-0.9s1.5,0.3,2,0.9
		C213.3,86.3,213.6,87.1,213.4,88.1v0.1l0,0V88.1z M206.2,84.7h1.4l-2.9,6.7h-0.4l-1.9-4.5l-1.9,4.5H200l-2.9-6.7h1.4l1.7,4l1.6-4
		h0.9l1.6,4l1.7-4L206.2,84.7L206.2,84.7z M193.4,85.9c-0.6,0-1.1,0.2-1.5,0.6c-0.4,0.4-0.6,0.9-0.6,1.5c0,0.6,0.2,1.1,0.6,1.5
		c0.4,0.4,0.9,0.6,1.6,0.6c0.6,0,1.1-0.2,1.5-0.6s0.6-0.9,0.6-1.5c0-0.6-0.2-1.1-0.6-1.5C194.6,86.2,194.1,85.9,193.4,85.9
		L193.4,85.9z M193.4,84.8c1,0,1.8,0.3,2.4,0.9c0.6,0.6,0.9,1.4,0.9,2.4s-0.3,1.7-1,2.3c-0.6,0.6-1.5,0.9-2.4,0.9s-1.8-0.3-2.4-0.9
		c-0.6-0.6-0.9-1.4-0.9-2.3c0-0.9,0.3-1.7,1-2.3C191.7,85.2,192.5,84.9,193.4,84.8L193.4,84.8z M185.3,85.9h-0.9v4
		c0.4,0.2,0.8,0.3,1.2,0.3c0.6,0,1.1-0.2,1.4-0.6c0.4-0.4,0.6-0.9,0.6-1.6c0-0.4-0.1-0.8-0.3-1.1c-0.2-0.3-0.4-0.6-0.8-0.7
		C186.3,86,185.8,85.9,185.3,85.9L185.3,85.9z M183.1,94.5v-9.5h2.1c1.1,0,1.9,0.3,2.5,0.8c0.6,0.6,0.9,1.3,0.9,2.3
		c0,0.9-0.3,1.8-0.8,2.3c-0.6,0.6-1.3,0.9-2.1,0.9c-0.4,0-0.8-0.1-1.3-0.3v3.4L183.1,94.5L183.1,94.5z M177.5,86.6v4.6h-1.3v-3.6
		c0-0.7-0.1-1.2-0.3-1.5c-0.2-0.3-0.5-0.4-1-0.4c-0.3,0-0.5,0.1-0.7,0.2c-0.2,0.1-0.4,0.3-0.8,0.6v4.6h-1.4v-6.4h1.3v0.8
		c0.6-0.6,1.3-1,1.9-1c0.8,0,1.4,0.4,1.9,1.2c0.7-0.8,1.4-1.2,2.1-1.2c0.6,0,1.1,0.3,1.6,0.7c0.4,0.4,0.6,1.1,0.6,2.1v3.8h-1.3v-3.8
		c0-0.6-0.1-0.9-0.3-1.3c-0.2-0.3-0.5-0.4-0.9-0.4c-0.5,0-1,0.3-1.4,0.8L177.5,86.6L177.5,86.6z M165.2,81.5h5.7v1.3h-4.1v3h4v1.4
		h-4v3h4.1v1.3h-5.7V81.5L165.2,81.5z M156.2,85.9c-0.6,0-1.1,0.2-1.5,0.6c-0.4,0.4-0.6,0.9-0.6,1.5c0,0.6,0.2,1.1,0.6,1.5
		c0.4,0.4,0.9,0.6,1.6,0.6s1.1-0.2,1.5-0.6c0.4-0.4,0.6-0.9,0.6-1.5c0-0.6-0.2-1.1-0.6-1.5C157.4,86.2,156.9,85.9,156.2,85.9
		L156.2,85.9z M156.3,84.8c1,0,1.8,0.3,2.4,0.9c0.6,0.6,0.9,1.4,0.9,2.4s-0.3,1.7-1,2.3c-0.6,0.6-1.5,0.9-2.4,0.9s-1.8-0.3-2.4-0.9
		s-0.9-1.4-0.9-2.3c0-0.9,0.3-1.7,1-2.3C154.6,85.2,155.4,84.9,156.3,84.8L156.3,84.8z M146.1,81.5h8.1v1.3H151v8.6h-1.4v-8.6h-3.5
		V81.5z M140.2,84.9v1.4l0.1-0.1c0.6-1,1.2-1.5,1.8-1.5c0.4,0,0.9,0.3,1.4,0.8l-0.6,1.1c-0.4-0.4-0.8-0.6-1.2-0.6s-0.8,0.2-1,0.6
		c-0.3,0.4-0.4,0.9-0.4,1.4v3.3h-1.3v-6.4L140.2,84.9L140.2,84.9L140.2,84.9z M133.1,87.4h3.2c-0.1-0.5-0.2-0.9-0.4-1.2
		c-0.3-0.3-0.6-0.4-1.1-0.4c-0.4,0-0.8,0.1-1.1,0.4C133.3,86.4,133.1,86.9,133.1,87.4z M137.7,88.1H133c0.1,0.6,0.3,1.1,0.6,1.5
		c0.4,0.4,0.9,0.6,1.4,0.6c0.8,0,1.6-0.3,2.4-0.8v1.3c-0.4,0.3-0.8,0.4-1.2,0.6c-0.4,0.1-0.8,0.2-1.3,0.2c-0.7,0-1.3-0.1-1.7-0.4
		c-0.4-0.3-0.8-0.7-1.1-1.2c-0.3-0.5-0.4-1.1-0.4-1.7c0-1,0.3-1.8,0.8-2.4c0.6-0.6,1.3-0.9,2.1-0.9s1.5,0.3,2,0.9
		C137.3,86.3,137.5,87.1,137.7,88.1v0.1l0,0V88.1z M130.2,84.7h1.4l-2.9,6.7h-0.4l-1.9-4.5l-1.9,4.5H124l-2.9-6.7h1.4l1.7,4l1.6-4
		h0.9l1.6,4l1.7-4H130.2z M117.4,85.9c-0.6,0-1.1,0.2-1.5,0.6c-0.4,0.4-0.6,0.9-0.6,1.5c0,0.6,0.2,1.1,0.6,1.5
		c0.4,0.4,0.9,0.6,1.6,0.6c0.6,0,1.1-0.2,1.5-0.6c0.4-0.4,0.6-0.9,0.6-1.5c0-0.6-0.2-1.1-0.6-1.5C118.5,86.2,118,85.9,117.4,85.9z
		 M117.4,84.8c1,0,1.8,0.3,2.4,0.9c0.6,0.6,0.9,1.4,0.9,2.4s-0.3,1.7-1,2.3c-0.6,0.6-1.5,0.9-2.4,0.9c-0.9,0-1.8-0.3-2.4-0.9
		s-0.9-1.4-0.9-2.3c0-0.9,0.3-1.7,1-2.3C115.7,85.2,116.5,84.9,117.4,84.8L117.4,84.8z M110.4,82.7H109v3h1.5c0.6,0,0.9-0.1,1.3-0.4
		s0.4-0.6,0.4-1.1C112.2,83.2,111.6,82.7,110.4,82.7z M107.5,91.3v-9.8h3c0.9,0,1.6,0.3,2.2,0.8c0.6,0.5,0.8,1.1,0.8,1.9
		c0,0.6-0.1,1.1-0.4,1.4c-0.3,0.4-0.6,0.8-1.1,0.9c-0.5,0.2-1.2,0.3-2.1,0.3H109v4.4L107.5,91.3L107.5,91.3L107.5,91.3z"/>
	<path class="st1" d="M79.4,89l-2,3.5c-3.8,6.2-9.9,13-16.6,16.1c-0.7,0.3-1.2,0.6-1.9,0.9c-0.4,0.2-1.7,0.6-2,0.8
		c13.6-2.8,23.7-8.9,32.2-19c7-8.4,14.2-22.2,13.2-37.7c-0.9-14.9-9.4-26.1-21.9-29.2C67,21,56.9,27,49.7,36.7
		c-0.5,0.7-2.1,3-2.4,3.8c9.9-4.9,21.6-7.1,31.5,0.1c8.7,6.3,11.2,18.9,9,29.9c-1.3,6.4-3.9,11.2-7.1,16.6
		C80.4,87.5,79.6,88.6,79.4,89L79.4,89L79.4,89z"/>
	<path class="st2" d="M45,109.7c-0.9,0.6-4.5-0.5-5.5-0.6c1.8,1.3,5.5,2.3,8.2,2.4c4.1,0.3,5.8-0.5,9.4-1.2c0.3-0.2,1.6-0.6,2-0.8
		c0.7-0.3,1.2-0.5,1.9-0.9c6.7-3.1,12.8-9.9,16.6-16.1l2-3.5c0.3-0.7,0.8-1.6,1.1-2.4c2.7-6.2,4.6-13.1,4-20
		c-0.4-4.1-1.4-7.8-3.1-10.8c-5.8-9.8-18.1-13.4-28.6-8.8c-5.8,2.5-9.4,6.7-12.4,11.9c-0.4,0.7-0.8,1.6-1.1,2.1
		c0.4-0.1,1.8-0.9,2.4-1.3c2.8-1.3,5.5-2.3,8.7-2.8c8.2-1.4,17,1.3,21.2,8.4c2,3.3,2.6,8.1,2.1,12.7c-0.9,8.1-5,16.6-8.9,21.4
		c-0.9,1.1-2.6,3-3.7,4c-1.3,1.1-2.6,2.2-4.3,3.2C53.9,108.3,48.2,110.4,45,109.7L45,109.7L45,109.7z"/>
	<path class="st3" d="M39.5,109.1c0.9,0.2,4.5,1.3,5.5,0.6c-1.6-0.4-2.4-1.3-3-2.7c-1.7-3.9-0.3-11,0.7-14.8c0.8-3.1,1.6-6,2.6-8.9
		l2.9-8.5H36.6c-0.7,1.1-2.3,7.1-2.6,8.9C32,91.6,29.9,105.3,39.5,109.1z"/>
	<path class="st3" d="M37.2,67.2l0.8,0.9c0.6-0.5,1.2-1.1,2.1-1.6c2-0.9,4.1-1,6.2-0.1c0.4,0.2,0.8,0.4,1.2,0.7
		c0.4,0.3,0.6,0.6,1.1,0.9l0.9-0.9c-0.4-0.6-1.6-1.4-2.4-1.9c-2.3-1.2-4.9-1.1-7.2,0C39,65.6,37.7,66.5,37.2,67.2L37.2,67.2z"/>
	<path class="st3" d="M38.7,68.8l0.9,1c0.9-0.4,2.7-2.6,5.8-1.1c0.9,0.4,0.9,0.6,1.6,1.1l1-1.1c-1.3-0.9-2.3-1.9-4.6-1.9
		C41.4,66.7,40,67.5,38.7,68.8L38.7,68.8z"/>
	<path class="st3" d="M40.4,70.4l0.9,0.8c0.1-0.1,0.2-0.1,0.3-0.2c0.5-0.4,1.1-0.6,1.8-0.6c1.3,0,1.6,0.6,2.4,0.9l0.6-0.9
		C45,68.7,41.7,68.6,40.4,70.4z"/>
	<path class="st3" d="M41.8,71.9l1.7,1.7l1.4-1.6C43.8,71.1,43,71.1,41.8,71.9L41.8,71.9L41.8,71.9z"/>
	<path class="st0" d="M106.9,74.8c2.5,0.1,7.9,0.3,9.9-0.5c5.7-2.4,7.3-10.7,4.5-13.8c-1.9-2-6.4-1.4-9.2-1.5L106.9,74.8L106.9,74.8
		L106.9,74.8z M114.3,61.7c8-0.8,5.4,7.9,1.9,9.8c-1.6,0.9-3.3,0.6-5.4,0.6L114.3,61.7L114.3,61.7z"/>
	<path class="st0" d="M130.2,71.3c-1,0.3-1.7,0.6-2,1.4c-0.5,1.1-0.1,1.9,0.6,2.4c-2.6,1-3.5,2.8-2.3,4c1.9,1.9,10.4,1.1,9-3.9
		c-0.7-2.3-4.1-1.4-4.8-2.6c0.6-1.3,1.9,0.3,4.7-1.6c1.3-0.8,1.8-2.4,1.8-4.5h1.5l0.6-2.3c-3.6-0.4-8.7-0.5-10,3.3
		c-0.2,0.6-0.3,1.4-0.2,2.1c0.1,0.4,0.1,0.5,0.3,0.8l0.6,0.8L130.2,71.3z M133.3,66.5c2.4-0.8,1.5,3,0.2,3.5
		c-1.3,0.5-1.9-0.1-1.7-1.4C131.9,67.5,132.4,66.8,133.3,66.5L133.3,66.5z M130.1,75.9c2-0.6,4.5,1.5,1.6,2.1
		C129.1,78.5,127,76.8,130.1,75.9z"/>
	<path class="st0" d="M200.3,64.1c-4,0.3-7.1,0.8-8.3,5.5c-1.4,5.5,3.4,5.8,7.6,5.1l5.2-15.6H202L200.3,64.1L200.3,64.1L200.3,64.1z
		 M197.5,72.3c-4.3,0.9-3.6-5.7,1.9-5.5C199.1,67.9,198,71.7,197.5,72.3z"/>
	<path class="st0" d="M156.8,74.1c0,0,0.1,0.1,0.1,0.3s-0.1,0.3-0.1,0.6h2.6l3.5-10.4c-2.4-0.4-4.3-0.6-6.5,0.3
		C149.8,67.4,150,78.5,156.8,74.1L156.8,74.1z M159.3,66.7c-0.3,1.4-0.9,2.8-1.3,4.1c-0.3,1-0.4,1.1-1.3,1.4
		c-3.2,1.4-2.4-2.3-1.2-3.9C156.4,67.2,157.2,66.5,159.3,66.7L159.3,66.7L159.3,66.7z"/>
	<path class="st0" d="M213.6,74.1l0.1,0.8h2.6l3.5-10.3c-4.6-1.3-8.6,0.6-10.2,3.4C207.2,72,208.7,77.4,213.6,74.1L213.6,74.1
		L213.6,74.1z M216.1,66.7c-0.3,1.3-0.9,2.8-1.3,4.1c-0.6,2-2.8,2-3.2,1.5C210.6,71.3,211.8,66.5,216.1,66.7L216.1,66.7z"/>
	<path class="st0" d="M179.4,74.6h2.8l1.8-5.2c0.1-0.3,0.1-0.4,0.2-0.6c0.3-0.9,0.2-0.9,1.1-1.6c2.4-1.8,2.8-0.7,2.3,1.1l-1.9,6.4
		h2.6l2.3-6.8c0.1-0.3,0.1-0.5,0.2-0.6c0.3-1.5,0.2-3-1.3-3.3c-1.6-0.3-3,0.6-4,1.2l0.3-1l-2.7-0.1L179.4,74.6L179.4,74.6
		L179.4,74.6z"/>
	<path class="st0" d="M147.1,64.3h-1.9l-0.8,2.2h1.8c0,0-5.3,10.7,3.1,7.8l0.5-2.7c-0.4,0.1-1.3,0.6-1.6,0.5
		c-1.8-0.1,0.4-4.5,0.8-5.5l2.1-0.1l0.8-2.5h-2l0.8-2l-2.8-0.1l-0.8,2.2v0.1L147.1,64.3z"/>
	<polygon class="st0" points="173.5,74.6 176.4,74.7 181.7,58.9 178.7,58.9 	"/>
	<polygon class="st0" points="162.1,74.7 164.8,74.8 170.1,58.9 167.3,58.9 	"/>
	<path class="st0" d="M128.3,59.9c0.8,0,1.3,0.8,1,1.6c-0.2,0.9-1,1.6-1.8,1.6s-1.3-0.8-1-1.6C126.7,60.6,127.5,59.9,128.3,59.9z
		 M122.2,74.9h2.8l3.3-10.6h-2.8L122.2,74.9z"/>
	<path class="st0" d="M143.7,59.9c0.8,0,1.3,0.8,1,1.6c-0.2,0.9-1,1.6-1.8,1.6s-1.3-0.8-1-1.6C142.1,60.6,142.9,59.9,143.7,59.9z
		 M137.6,74.9h2.8l3.3-10.6h-2.8L137.6,74.9z"/>
	<path class="st0" d="M208.1,59.9c0.8,0,1.3,0.8,1,1.6c-0.2,0.9-1,1.6-1.8,1.6c-0.8,0-1.3-0.8-1-1.6
		C206.5,60.6,207.3,59.9,208.1,59.9z M202,74.9h2.8l3.3-10.6h-2.8L202,74.9z"/>
	<polygon class="st0" points="218.6,76.3 137.5,76.3 137.5,77.3 218.6,77.3 	"/>
	<polygon class="st0" points="122.8,76.3 106.4,76.3 106.4,77.3 122.8,77.3 	"/>
</g>
</svg>
