<svg width="250" height="141" viewBox="0 0 250 141" fill="none" xmlns="http://www.w3.org/2000/svg">
<g clip-path="url(#clip0_190_13588)">
<rect width="250" height="141" fill="white"/>
<rect width="250" height="141" fill="white"/>
<path d="M75.485 74.0052H67.1129V69.6093H75.485C76.9429 69.6093 78.121 69.3737 79.0194 68.9025C79.9177 68.4312 80.573 67.7832 80.9854 66.9586C81.4124 66.1191 81.626 65.1619 81.626 64.0869C81.626 63.0707 81.4124 62.1209 80.9854 61.2373C80.573 60.339 79.9177 59.6174 79.0194 59.0725C78.121 58.5276 76.9429 58.2552 75.485 58.2552H68.8138V86H63.2693V53.8372H75.485C77.9738 53.8372 80.087 54.279 81.8248 55.1626C83.5772 56.0314 84.91 57.239 85.823 58.7853C86.7361 60.3169 87.1926 62.0693 87.1926 64.0427C87.1926 66.1191 86.7361 67.9011 85.823 69.3884C84.91 70.8758 83.5772 72.0171 81.8248 72.8124C80.087 73.6076 77.9738 74.0052 75.485 74.0052ZM110.499 81.6041V86H94.3515V81.6041H110.499ZM95.8978 53.8372V86H90.3532V53.8372H95.8978ZM118.895 53.8372V86H113.351V53.8372H118.895ZM154.154 81.7587V86H132.594V82.3552L143.065 70.9347C144.214 69.6388 145.119 68.5196 145.782 67.5771C146.445 66.6346 146.909 65.7878 147.174 65.0367C147.453 64.271 147.593 63.5273 147.593 62.8057C147.593 61.7895 147.402 60.8986 147.019 60.1328C146.651 59.3523 146.106 58.7411 145.384 58.2993C144.663 57.8428 143.786 57.6145 142.756 57.6145C141.563 57.6145 140.561 57.8723 139.751 58.3877C138.941 58.9031 138.33 59.6174 137.918 60.5304C137.506 61.4287 137.299 62.4596 137.299 63.623H131.976C131.976 61.7527 132.403 60.0444 133.257 58.4981C134.111 56.9371 135.348 55.7001 136.968 54.787C138.588 53.8593 140.539 53.3954 142.822 53.3954C144.972 53.3954 146.798 53.7562 148.3 54.4778C149.802 55.1994 150.944 56.2229 151.724 57.5483C152.519 58.8737 152.917 60.442 152.917 62.2534C152.917 63.2548 152.755 64.2489 152.431 65.2355C152.107 66.2222 151.643 67.2089 151.039 68.1956C150.45 69.1675 149.751 70.1469 148.941 71.1335C148.131 72.1055 147.24 73.0922 146.268 74.0936L139.31 81.7587H154.154ZM157.027 83.3492C157.027 82.5245 157.307 81.8324 157.867 81.2728C158.426 80.6984 159.185 80.4113 160.142 80.4113C161.114 80.4113 161.872 80.6984 162.417 81.2728C162.977 81.8324 163.257 82.5245 163.257 83.3492C163.257 84.1739 162.977 84.8661 162.417 85.4257C161.872 85.9853 161.114 86.2651 160.142 86.2651C159.185 86.2651 158.426 85.9853 157.867 85.4257C157.307 84.8661 157.027 84.1739 157.027 83.3492ZM188.242 67.2236V72.481C188.242 74.9993 187.992 77.1493 187.491 78.9312C187.005 80.6984 186.298 82.1343 185.37 83.2388C184.443 84.3433 183.331 85.1532 182.035 85.6687C180.754 86.1841 179.318 86.4418 177.727 86.4418C176.461 86.4418 175.283 86.2798 174.193 85.9558C173.118 85.6318 172.146 85.1238 171.277 84.4316C170.408 83.7395 169.665 82.8485 169.046 81.7587C168.442 80.6543 167.971 79.3362 167.632 77.8047C167.308 76.2731 167.146 74.4986 167.146 72.481V67.2236C167.146 64.6907 167.397 62.5553 167.897 60.8176C168.398 59.0651 169.112 57.644 170.04 56.5542C170.968 55.4497 172.072 54.6471 173.354 54.1464C174.65 53.6457 176.093 53.3954 177.683 53.3954C178.964 53.3954 180.143 53.5574 181.218 53.8814C182.307 54.1906 183.279 54.684 184.133 55.3614C185.002 56.0388 185.739 56.9224 186.342 58.0122C186.961 59.0872 187.432 60.3905 187.756 61.9221C188.08 63.4389 188.242 65.2061 188.242 67.2236ZM182.918 73.2321V66.4284C182.918 65.1472 182.845 64.0206 182.698 63.0487C182.55 62.062 182.329 61.2299 182.035 60.5525C181.755 59.8604 181.402 59.3007 180.975 58.8737C180.548 58.4319 180.062 58.1153 179.517 57.9238C178.972 57.7176 178.361 57.6145 177.683 57.6145C176.859 57.6145 176.122 57.7765 175.474 58.1005C174.826 58.4098 174.281 58.9105 173.84 59.6026C173.398 60.2948 173.059 61.2078 172.823 62.3418C172.603 63.461 172.492 64.8232 172.492 66.4284V73.2321C172.492 74.528 172.566 75.6693 172.713 76.656C172.86 77.6427 173.081 78.4895 173.376 79.1963C173.67 79.8885 174.024 80.4628 174.436 80.9193C174.863 81.3611 175.349 81.6851 175.894 81.8913C176.454 82.0975 177.065 82.2005 177.727 82.2005C178.567 82.2005 179.31 82.0386 179.958 81.7146C180.606 81.3906 181.151 80.8752 181.593 80.1683C182.035 79.4467 182.366 78.5115 182.587 77.3629C182.808 76.2142 182.918 74.8373 182.918 73.2321Z" fill="#3B5998"/>
</g>
<defs>
<clipPath id="clip0_190_13588">
<rect width="250" height="141" fill="white"/>
</clipPath>
</defs>
</svg>
